<svg width="23" height="23" viewBox="0 0 23 23" fill="none" xmlns="http://www.w3.org/2000/svg">
<rect width="22.5664" height="22.5664" rx="11.2832" fill="#F7F7F8"/>
<path d="M12.8027 5.80347C13.2189 5.80362 13.599 6.03869 13.7852 6.41089L14.3789 7.59644C14.5031 7.84471 14.7566 8.00171 15.0342 8.00171H16.0469C16.6539 8.00177 17.1465 8.49424 17.1465 9.10132V14.9636C17.1465 15.5708 16.6539 16.0632 16.0469 16.0632H6.51953C5.91247 16.0632 5.41992 15.5708 5.41992 14.9636V9.10132C5.41992 8.49424 5.91247 8.00177 6.51953 8.00171H7.53223C7.80981 8.00171 8.06336 7.84471 8.1875 7.59644L8.78125 6.41089C8.96744 6.03868 9.3475 5.8036 9.76367 5.80347H12.8027ZM11.2832 8.73511C9.66432 8.73511 8.35172 10.0469 8.35156 11.6658C8.35156 13.2848 9.66422 14.5974 11.2832 14.5974C12.9022 14.5974 14.2148 13.2848 14.2148 11.6658C14.2147 10.0469 12.9021 8.73511 11.2832 8.73511ZM11.2832 9.98022C12.214 9.98022 12.9686 10.735 12.9688 11.6658C12.9688 12.5967 12.2141 13.3513 11.2832 13.3513C10.3523 13.3513 9.59766 12.5967 9.59766 11.6658C9.59782 10.735 10.3524 9.98022 11.2832 9.98022Z" fill="#1A1B22"/>
</svg>
