<svg width="23" height="23" viewBox="0 0 23 23" fill="none" xmlns="http://www.w3.org/2000/svg">
<rect width="22.5664" height="22.5664" rx="11.2832" fill="#2C2C2E"/>
<path d="M12.8027 5.80371C13.2189 5.80386 13.599 6.03894 13.7852 6.41113L14.3789 7.59668C14.5031 7.84496 14.7566 8.00195 15.0342 8.00195H16.0469C16.6539 8.00201 17.1465 8.49448 17.1465 9.10156V14.9639C17.1465 15.571 16.6539 16.0634 16.0469 16.0635H6.51953C5.91247 16.0634 5.41992 15.571 5.41992 14.9639V9.10156C5.41992 8.49448 5.91247 8.00201 6.51953 8.00195H7.53223C7.80981 8.00195 8.06336 7.84496 8.1875 7.59668L8.78125 6.41113C8.96744 6.03892 9.3475 5.80385 9.76367 5.80371H12.8027ZM11.2832 8.73535C9.66432 8.73535 8.35172 10.0472 8.35156 11.666C8.35156 13.285 9.66422 14.5977 11.2832 14.5977C12.9022 14.5977 14.2148 13.285 14.2148 11.666C14.2147 10.0472 12.9021 8.73535 11.2832 8.73535ZM11.2832 9.98047C12.214 9.98047 12.9686 10.7352 12.9688 11.666C12.9688 12.5969 12.2141 13.3516 11.2832 13.3516C10.3523 13.3516 9.59766 12.5969 9.59766 11.666C9.59782 10.7352 10.3524 9.98047 11.2832 9.98047Z" fill="white"/>
</svg>
